<mxfile host="app.diagrams.net" modified="2024-01-06T04:43:47.452Z" agent="Mozilla/5.0 (Windows NT 10.0; Win64; x64) AppleWebKit/537.36 (KHTML, like Gecko) Chrome/120.0.0.0 Safari/537.36" etag="yb7QWwnJdUgrvafVEyzt" version="22.1.17" type="github">
  <diagram name="Page-1" id="OVm1V5rvUiN5_n777IS2">
    <mxGraphModel dx="1858" dy="1692" grid="1" gridSize="10" guides="1" tooltips="1" connect="1" arrows="1" fold="1" page="1" pageScale="1" pageWidth="850" pageHeight="1100" math="0" shadow="0">
      <root>
        <mxCell id="0" />
        <mxCell id="1" parent="0" />
        <mxCell id="6h84PF4SdJqPQpqpmfc6-9" style="edgeStyle=orthogonalEdgeStyle;rounded=0;orthogonalLoop=1;jettySize=auto;html=1;exitX=1;exitY=0.5;exitDx=0;exitDy=0;entryX=0;entryY=0.5;entryDx=0;entryDy=0;" parent="1" source="6h84PF4SdJqPQpqpmfc6-5" target="6h84PF4SdJqPQpqpmfc6-8" edge="1">
          <mxGeometry relative="1" as="geometry" />
        </mxCell>
        <mxCell id="6h84PF4SdJqPQpqpmfc6-5" value="" style="rounded=0;whiteSpace=wrap;html=1;" parent="1" vertex="1">
          <mxGeometry x="25" y="180" width="120" height="300" as="geometry" />
        </mxCell>
        <mxCell id="6h84PF4SdJqPQpqpmfc6-2" value="Driver2" style="shape=umlActor;verticalLabelPosition=bottom;verticalAlign=top;html=1;outlineConnect=0;" parent="1" vertex="1">
          <mxGeometry x="70" y="300" width="30" height="60" as="geometry" />
        </mxCell>
        <mxCell id="6h84PF4SdJqPQpqpmfc6-3" value="Driver1" style="shape=umlActor;verticalLabelPosition=bottom;verticalAlign=top;html=1;outlineConnect=0;" parent="1" vertex="1">
          <mxGeometry x="70" y="210" width="30" height="60" as="geometry" />
        </mxCell>
        <mxCell id="6h84PF4SdJqPQpqpmfc6-4" value="Driver3" style="shape=umlActor;verticalLabelPosition=bottom;verticalAlign=top;html=1;outlineConnect=0;" parent="1" vertex="1">
          <mxGeometry x="70" y="380" width="30" height="60" as="geometry" />
        </mxCell>
        <mxCell id="6h84PF4SdJqPQpqpmfc6-27" style="edgeStyle=orthogonalEdgeStyle;rounded=0;orthogonalLoop=1;jettySize=auto;html=1;exitX=1;exitY=0.25;exitDx=0;exitDy=0;entryX=0;entryY=0.5;entryDx=0;entryDy=0;" parent="1" source="6h84PF4SdJqPQpqpmfc6-8" target="6h84PF4SdJqPQpqpmfc6-22" edge="1">
          <mxGeometry relative="1" as="geometry" />
        </mxCell>
        <mxCell id="6h84PF4SdJqPQpqpmfc6-8" value="WebSocket Gateway" style="rounded=0;whiteSpace=wrap;html=1;" parent="1" vertex="1">
          <mxGeometry x="290" y="160" width="50" height="340" as="geometry" />
        </mxCell>
        <mxCell id="6h84PF4SdJqPQpqpmfc6-15" value="" style="rounded=0;whiteSpace=wrap;html=1;" parent="1" vertex="1">
          <mxGeometry x="25" y="-160" width="120" height="300" as="geometry" />
        </mxCell>
        <mxCell id="6h84PF4SdJqPQpqpmfc6-19" value="" style="edgeStyle=orthogonalEdgeStyle;rounded=0;orthogonalLoop=1;jettySize=auto;html=1;" parent="1" source="6h84PF4SdJqPQpqpmfc6-16" target="6h84PF4SdJqPQpqpmfc6-18" edge="1">
          <mxGeometry relative="1" as="geometry" />
        </mxCell>
        <mxCell id="6h84PF4SdJqPQpqpmfc6-16" value="Customer" style="shape=umlActor;verticalLabelPosition=bottom;verticalAlign=top;html=1;outlineConnect=0;" parent="1" vertex="1">
          <mxGeometry x="70" y="-40" width="30" height="60" as="geometry" />
        </mxCell>
        <mxCell id="6h84PF4SdJqPQpqpmfc6-17" value="Customer" style="shape=umlActor;verticalLabelPosition=bottom;verticalAlign=top;html=1;outlineConnect=0;" parent="1" vertex="1">
          <mxGeometry x="70" y="-130" width="30" height="60" as="geometry" />
        </mxCell>
        <mxCell id="6h84PF4SdJqPQpqpmfc6-18" value="Customer" style="shape=umlActor;verticalLabelPosition=bottom;verticalAlign=top;html=1;outlineConnect=0;" parent="1" vertex="1">
          <mxGeometry x="70" y="40" width="30" height="60" as="geometry" />
        </mxCell>
        <mxCell id="6h84PF4SdJqPQpqpmfc6-24" style="edgeStyle=orthogonalEdgeStyle;rounded=0;orthogonalLoop=1;jettySize=auto;html=1;exitX=1;exitY=0.5;exitDx=0;exitDy=0;entryX=0;entryY=0.5;entryDx=0;entryDy=0;" parent="1" source="6h84PF4SdJqPQpqpmfc6-20" target="6h84PF4SdJqPQpqpmfc6-22" edge="1">
          <mxGeometry relative="1" as="geometry" />
        </mxCell>
        <mxCell id="6h84PF4SdJqPQpqpmfc6-20" value="WebSocket Gateway" style="rounded=0;whiteSpace=wrap;html=1;" parent="1" vertex="1">
          <mxGeometry x="290" y="-150" width="50" height="300" as="geometry" />
        </mxCell>
        <mxCell id="6h84PF4SdJqPQpqpmfc6-21" style="edgeStyle=orthogonalEdgeStyle;rounded=0;orthogonalLoop=1;jettySize=auto;html=1;exitX=1;exitY=0.5;exitDx=0;exitDy=0;entryX=0;entryY=0.469;entryDx=0;entryDy=0;entryPerimeter=0;" parent="1" source="6h84PF4SdJqPQpqpmfc6-15" target="6h84PF4SdJqPQpqpmfc6-20" edge="1">
          <mxGeometry relative="1" as="geometry" />
        </mxCell>
        <mxCell id="6h84PF4SdJqPQpqpmfc6-28" style="edgeStyle=orthogonalEdgeStyle;rounded=0;orthogonalLoop=1;jettySize=auto;html=1;exitX=0.5;exitY=1;exitDx=0;exitDy=0;entryX=0.5;entryY=0;entryDx=0;entryDy=0;" parent="1" source="6h84PF4SdJqPQpqpmfc6-22" target="6h84PF4SdJqPQpqpmfc6-23" edge="1">
          <mxGeometry relative="1" as="geometry" />
        </mxCell>
        <mxCell id="6h84PF4SdJqPQpqpmfc6-22" value="Location Manager" style="rounded=0;whiteSpace=wrap;html=1;" parent="1" vertex="1">
          <mxGeometry x="440" y="80" width="120" height="60" as="geometry" />
        </mxCell>
        <mxCell id="6h84PF4SdJqPQpqpmfc6-23" value="Map Service" style="rounded=0;whiteSpace=wrap;html=1;" parent="1" vertex="1">
          <mxGeometry x="440" y="210" width="120" height="60" as="geometry" />
        </mxCell>
        <mxCell id="6h84PF4SdJqPQpqpmfc6-29" value="Redis" style="shape=cylinder3;whiteSpace=wrap;html=1;boundedLbl=1;backgroundOutline=1;size=15;" parent="1" vertex="1">
          <mxGeometry x="670" y="70" width="60" height="80" as="geometry" />
        </mxCell>
        <mxCell id="6h84PF4SdJqPQpqpmfc6-30" style="edgeStyle=orthogonalEdgeStyle;rounded=0;orthogonalLoop=1;jettySize=auto;html=1;exitX=1;exitY=0.5;exitDx=0;exitDy=0;entryX=0;entryY=0.5;entryDx=0;entryDy=0;entryPerimeter=0;" parent="1" source="6h84PF4SdJqPQpqpmfc6-22" target="6h84PF4SdJqPQpqpmfc6-29" edge="1">
          <mxGeometry relative="1" as="geometry" />
        </mxCell>
        <mxCell id="6h84PF4SdJqPQpqpmfc6-33" style="edgeStyle=orthogonalEdgeStyle;rounded=0;orthogonalLoop=1;jettySize=auto;html=1;exitX=0.5;exitY=1;exitDx=0;exitDy=0;entryX=0.5;entryY=0;entryDx=0;entryDy=0;" parent="1" source="6h84PF4SdJqPQpqpmfc6-31" target="6h84PF4SdJqPQpqpmfc6-22" edge="1">
          <mxGeometry relative="1" as="geometry" />
        </mxCell>
        <mxCell id="6h84PF4SdJqPQpqpmfc6-34" style="edgeStyle=orthogonalEdgeStyle;rounded=0;orthogonalLoop=1;jettySize=auto;html=1;exitX=1;exitY=0.5;exitDx=0;exitDy=0;" parent="1" source="6h84PF4SdJqPQpqpmfc6-31" target="6h84PF4SdJqPQpqpmfc6-35" edge="1">
          <mxGeometry relative="1" as="geometry">
            <mxPoint x="640" y="-90" as="targetPoint" />
          </mxGeometry>
        </mxCell>
        <mxCell id="6h84PF4SdJqPQpqpmfc6-41" style="edgeStyle=orthogonalEdgeStyle;rounded=0;orthogonalLoop=1;jettySize=auto;html=1;exitX=1;exitY=0.25;exitDx=0;exitDy=0;entryX=0;entryY=0.5;entryDx=0;entryDy=0;" parent="1" source="6h84PF4SdJqPQpqpmfc6-31" target="6h84PF4SdJqPQpqpmfc6-40" edge="1">
          <mxGeometry relative="1" as="geometry">
            <Array as="points">
              <mxPoint x="590" y="-55" />
              <mxPoint x="590" y="-140" />
            </Array>
          </mxGeometry>
        </mxCell>
        <mxCell id="6h84PF4SdJqPQpqpmfc6-31" value="Cab FInder" style="rounded=0;whiteSpace=wrap;html=1;" parent="1" vertex="1">
          <mxGeometry x="440" y="-70" width="120" height="60" as="geometry" />
        </mxCell>
        <mxCell id="6h84PF4SdJqPQpqpmfc6-32" value="Cab Request Service" style="rounded=0;whiteSpace=wrap;html=1;" parent="1" vertex="1">
          <mxGeometry x="440" y="-240" width="120" height="60" as="geometry" />
        </mxCell>
        <mxCell id="6h84PF4SdJqPQpqpmfc6-35" value="Rule Engine" style="rounded=0;whiteSpace=wrap;html=1;" parent="1" vertex="1">
          <mxGeometry x="640" y="-70" width="120" height="60" as="geometry" />
        </mxCell>
        <mxCell id="6h84PF4SdJqPQpqpmfc6-39" value="" style="endArrow=classic;startArrow=classic;html=1;rounded=0;entryX=0.5;entryY=1;entryDx=0;entryDy=0;" parent="1" source="6h84PF4SdJqPQpqpmfc6-31" target="6h84PF4SdJqPQpqpmfc6-32" edge="1">
          <mxGeometry width="50" height="50" relative="1" as="geometry">
            <mxPoint x="380" y="10" as="sourcePoint" />
            <mxPoint x="430" y="-40" as="targetPoint" />
          </mxGeometry>
        </mxCell>
        <mxCell id="6h84PF4SdJqPQpqpmfc6-54" style="edgeStyle=orthogonalEdgeStyle;rounded=0;orthogonalLoop=1;jettySize=auto;html=1;exitX=0.5;exitY=0;exitDx=0;exitDy=0;entryX=0.5;entryY=1;entryDx=0;entryDy=0;" parent="1" source="6h84PF4SdJqPQpqpmfc6-40" target="6h84PF4SdJqPQpqpmfc6-53" edge="1">
          <mxGeometry relative="1" as="geometry" />
        </mxCell>
        <mxCell id="6h84PF4SdJqPQpqpmfc6-40" value="Trip Service" style="rounded=0;whiteSpace=wrap;html=1;" parent="1" vertex="1">
          <mxGeometry x="640" y="-170" width="120" height="60" as="geometry" />
        </mxCell>
        <mxCell id="6h84PF4SdJqPQpqpmfc6-42" value="DB Cluster" style="shape=cylinder3;whiteSpace=wrap;html=1;boundedLbl=1;backgroundOutline=1;size=15;" parent="1" vertex="1">
          <mxGeometry x="560" y="-390" width="60" height="80" as="geometry" />
        </mxCell>
        <mxCell id="6h84PF4SdJqPQpqpmfc6-44" value="Kafka" style="rounded=0;whiteSpace=wrap;html=1;" parent="1" vertex="1">
          <mxGeometry x="840" y="-280" width="90" height="770" as="geometry" />
        </mxCell>
        <mxCell id="6h84PF4SdJqPQpqpmfc6-47" style="edgeStyle=orthogonalEdgeStyle;rounded=0;orthogonalLoop=1;jettySize=auto;html=1;exitX=1;exitY=0.5;exitDx=0;exitDy=0;" parent="1" source="6h84PF4SdJqPQpqpmfc6-45" target="6h84PF4SdJqPQpqpmfc6-44" edge="1">
          <mxGeometry relative="1" as="geometry" />
        </mxCell>
        <mxCell id="6h84PF4SdJqPQpqpmfc6-48" style="edgeStyle=orthogonalEdgeStyle;rounded=0;orthogonalLoop=1;jettySize=auto;html=1;entryX=0.5;entryY=1;entryDx=0;entryDy=0;" parent="1" source="6h84PF4SdJqPQpqpmfc6-45" target="6h84PF4SdJqPQpqpmfc6-5" edge="1">
          <mxGeometry relative="1" as="geometry">
            <Array as="points">
              <mxPoint x="610" y="520" />
              <mxPoint x="85" y="520" />
            </Array>
          </mxGeometry>
        </mxCell>
        <mxCell id="6h84PF4SdJqPQpqpmfc6-50" style="edgeStyle=orthogonalEdgeStyle;rounded=0;orthogonalLoop=1;jettySize=auto;html=1;exitX=0.75;exitY=1;exitDx=0;exitDy=0;entryX=0;entryY=0.75;entryDx=0;entryDy=0;" parent="1" source="6h84PF4SdJqPQpqpmfc6-45" target="6h84PF4SdJqPQpqpmfc6-15" edge="1">
          <mxGeometry relative="1" as="geometry">
            <Array as="points">
              <mxPoint x="640" y="550" />
              <mxPoint x="5" y="550" />
              <mxPoint x="5" y="65" />
            </Array>
          </mxGeometry>
        </mxCell>
        <mxCell id="6h84PF4SdJqPQpqpmfc6-45" value="NOtification Service" style="rounded=0;whiteSpace=wrap;html=1;" parent="1" vertex="1">
          <mxGeometry x="550" y="430" width="120" height="60" as="geometry" />
        </mxCell>
        <mxCell id="6h84PF4SdJqPQpqpmfc6-53" value="Payment Service" style="rounded=0;whiteSpace=wrap;html=1;" parent="1" vertex="1">
          <mxGeometry x="640" y="-280" width="120" height="60" as="geometry" />
        </mxCell>
        <mxCell id="6h84PF4SdJqPQpqpmfc6-55" style="edgeStyle=orthogonalEdgeStyle;rounded=0;orthogonalLoop=1;jettySize=auto;html=1;exitX=1;exitY=0.5;exitDx=0;exitDy=0;entryX=-0.044;entryY=0.04;entryDx=0;entryDy=0;entryPerimeter=0;" parent="1" source="6h84PF4SdJqPQpqpmfc6-53" target="6h84PF4SdJqPQpqpmfc6-44" edge="1">
          <mxGeometry relative="1" as="geometry" />
        </mxCell>
        <mxCell id="6h84PF4SdJqPQpqpmfc6-56" style="edgeStyle=orthogonalEdgeStyle;rounded=0;orthogonalLoop=1;jettySize=auto;html=1;exitX=0;exitY=0.25;exitDx=0;exitDy=0;entryX=0.5;entryY=1;entryDx=0;entryDy=0;entryPerimeter=0;" parent="1" source="6h84PF4SdJqPQpqpmfc6-40" target="6h84PF4SdJqPQpqpmfc6-42" edge="1">
          <mxGeometry relative="1" as="geometry" />
        </mxCell>
        <mxCell id="6h84PF4SdJqPQpqpmfc6-57" value="User Service" style="rounded=0;whiteSpace=wrap;html=1;" parent="1" vertex="1">
          <mxGeometry x="280" y="-240" width="120" height="60" as="geometry" />
        </mxCell>
        <mxCell id="6h84PF4SdJqPQpqpmfc6-62" style="edgeStyle=orthogonalEdgeStyle;rounded=0;orthogonalLoop=1;jettySize=auto;html=1;exitX=0.5;exitY=0;exitDx=0;exitDy=0;" parent="1" source="6h84PF4SdJqPQpqpmfc6-58" edge="1">
          <mxGeometry relative="1" as="geometry">
            <mxPoint x="260" y="-310" as="targetPoint" />
          </mxGeometry>
        </mxCell>
        <mxCell id="6h84PF4SdJqPQpqpmfc6-58" value="Driver Service" style="rounded=0;whiteSpace=wrap;html=1;" parent="1" vertex="1">
          <mxGeometry x="130" y="-240" width="120" height="60" as="geometry" />
        </mxCell>
        <mxCell id="6h84PF4SdJqPQpqpmfc6-59" value="DB Cluster" style="shape=cylinder3;whiteSpace=wrap;html=1;boundedLbl=1;backgroundOutline=1;size=15;" parent="1" vertex="1">
          <mxGeometry x="220" y="-520" width="60" height="80" as="geometry" />
        </mxCell>
        <mxCell id="6h84PF4SdJqPQpqpmfc6-60" value="Redis Cluster" style="ellipse;shape=cloud;whiteSpace=wrap;html=1;" parent="1" vertex="1">
          <mxGeometry x="200" y="-390" width="120" height="80" as="geometry" />
        </mxCell>
        <mxCell id="6h84PF4SdJqPQpqpmfc6-61" style="edgeStyle=orthogonalEdgeStyle;rounded=0;orthogonalLoop=1;jettySize=auto;html=1;exitX=0.5;exitY=0;exitDx=0;exitDy=0;entryX=0.55;entryY=0.95;entryDx=0;entryDy=0;entryPerimeter=0;" parent="1" source="6h84PF4SdJqPQpqpmfc6-57" target="6h84PF4SdJqPQpqpmfc6-60" edge="1">
          <mxGeometry relative="1" as="geometry" />
        </mxCell>
        <mxCell id="6h84PF4SdJqPQpqpmfc6-63" style="edgeStyle=orthogonalEdgeStyle;rounded=0;orthogonalLoop=1;jettySize=auto;html=1;exitX=0.4;exitY=0.1;exitDx=0;exitDy=0;exitPerimeter=0;entryX=0.5;entryY=1;entryDx=0;entryDy=0;entryPerimeter=0;" parent="1" source="6h84PF4SdJqPQpqpmfc6-60" target="6h84PF4SdJqPQpqpmfc6-59" edge="1">
          <mxGeometry relative="1" as="geometry" />
        </mxCell>
        <mxCell id="6h84PF4SdJqPQpqpmfc6-64" style="edgeStyle=orthogonalEdgeStyle;rounded=0;orthogonalLoop=1;jettySize=auto;html=1;exitX=0.5;exitY=0;exitDx=0;exitDy=0;entryX=0;entryY=0.5;entryDx=0;entryDy=0;entryPerimeter=0;" parent="1" source="6h84PF4SdJqPQpqpmfc6-32" target="6h84PF4SdJqPQpqpmfc6-42" edge="1">
          <mxGeometry relative="1" as="geometry" />
        </mxCell>
        <mxCell id="6h84PF4SdJqPQpqpmfc6-65" value="" style="endArrow=classic;startArrow=classic;html=1;rounded=0;entryX=-0.007;entryY=0.184;entryDx=0;entryDy=0;entryPerimeter=0;exitX=1;exitY=0.5;exitDx=0;exitDy=0;" parent="1" source="6h84PF4SdJqPQpqpmfc6-40" target="6h84PF4SdJqPQpqpmfc6-44" edge="1">
          <mxGeometry width="50" height="50" relative="1" as="geometry">
            <mxPoint x="380" y="-10" as="sourcePoint" />
            <mxPoint x="430" y="-60" as="targetPoint" />
          </mxGeometry>
        </mxCell>
        <mxCell id="AVTp5YEo3XU99YIu9irE-1" value="CDN" style="ellipse;shape=cloud;whiteSpace=wrap;html=1;" vertex="1" parent="1">
          <mxGeometry x="365" y="-470" width="120" height="80" as="geometry" />
        </mxCell>
        <mxCell id="AVTp5YEo3XU99YIu9irE-2" style="edgeStyle=orthogonalEdgeStyle;rounded=0;orthogonalLoop=1;jettySize=auto;html=1;exitX=1;exitY=0.5;exitDx=0;exitDy=0;entryX=0.55;entryY=0.95;entryDx=0;entryDy=0;entryPerimeter=0;" edge="1" parent="1" source="6h84PF4SdJqPQpqpmfc6-57" target="AVTp5YEo3XU99YIu9irE-1">
          <mxGeometry relative="1" as="geometry" />
        </mxCell>
        <mxCell id="AVTp5YEo3XU99YIu9irE-3" style="edgeStyle=orthogonalEdgeStyle;rounded=0;orthogonalLoop=1;jettySize=auto;html=1;exitX=0.75;exitY=0;exitDx=0;exitDy=0;entryX=0.31;entryY=0.8;entryDx=0;entryDy=0;entryPerimeter=0;" edge="1" parent="1" source="6h84PF4SdJqPQpqpmfc6-58" target="AVTp5YEo3XU99YIu9irE-1">
          <mxGeometry relative="1" as="geometry" />
        </mxCell>
      </root>
    </mxGraphModel>
  </diagram>
</mxfile>
